<svg width="14" height="13" viewBox="0 0 14 13" fill="none" xmlns="http://www.w3.org/2000/svg">
<path fill-rule="evenodd" clip-rule="evenodd" d="M4.0877 0.722222C4.0877 0.323556 4.36907 0 4.71653 0H8.90914C9.2566 0 9.53797 0.323556 9.53797 0.722222C9.53797 1.12089 9.2566 1.44444 8.90914 1.44444H4.71653C4.36907 1.44444 4.0877 1.12089 4.0877 0.722222ZM5.29902 13H8.32665C10.4529 13 11.5164 13 12.2801 12.4786C12.6087 12.2546 12.8925 11.9643 13.1154 11.6242C13.6257 10.8442 13.6257 9.75722 13.6257 7.58333C13.6257 5.40944 13.6257 4.32322 13.1147 3.5425C12.8921 3.20242 12.6085 2.9121 12.2801 2.68811C11.5164 2.16667 10.4529 2.16667 8.32665 2.16667H5.29902C3.17274 2.16667 2.10925 2.16667 1.34553 2.68811C1.01717 2.91212 0.733595 3.20243 0.510963 3.5425C0 4.3225 0 5.40944 0 7.58189V7.58333C0 9.75722 4.06077e-08 10.8434 0.510281 11.6242C0.731017 11.9622 1.01443 12.2525 1.34553 12.4786C2.10925 13 3.17274 13 5.29902 13ZM3.97393 7.58333C3.97393 5.98 5.2452 4.68144 6.81283 4.68144C8.38047 4.68144 9.65174 5.98072 9.65174 7.58333C9.65174 9.18594 8.37979 10.4852 6.81283 10.4852C5.2452 10.4852 3.97393 9.18522 3.97393 7.58333ZM5.10963 7.58333C5.10963 6.62133 5.87266 5.84278 6.81283 5.84278C7.75301 5.84278 8.51604 6.62206 8.51604 7.58333C8.51604 8.54461 7.75301 9.32389 6.81283 9.32389C5.87266 9.32389 5.10963 8.54461 5.10963 7.58333ZM10.9762 4.68144C10.6628 4.68144 10.4086 4.94144 10.4086 5.26211C10.4086 5.58206 10.6628 5.84206 10.9762 5.84206H11.355C11.6683 5.84206 11.9225 5.58206 11.9225 5.26211C11.9225 4.94144 11.6683 4.68144 11.355 4.68144H10.9762Z" fill="#5E6366" fill-opacity="0.81"/>
</svg>
