<svg width="23" height="22" viewBox="0 0 23 22" fill="none" xmlns="http://www.w3.org/2000/svg">
<path d="M11.491 11V16.5" stroke="#7454F8" stroke-width="1.5" stroke-linecap="round"/>
<path d="M11.4909 16.5C9.96184 16.5 8.63101 17.4277 7.94392 18.7962C7.61575 19.4498 8.08666 20.1667 8.71238 20.1667H14.2695C14.8952 20.1667 15.3661 19.4498 15.0379 18.7962C14.3508 17.4277 13.02 16.5 11.4909 16.5Z" stroke="#7454F8" stroke-width="1.5" stroke-linecap="round"/>
<path d="M5.09561 4.58334H4.16802C3.2667 4.58334 2.81605 4.58334 2.53761 4.923C2.25918 5.26265 2.34083 5.64298 2.50413 6.40366C2.81606 7.85663 3.49264 9.13313 4.40939 10.0833" stroke="#7454F8" stroke-width="1.5" stroke-linecap="round"/>
<path d="M17.8865 4.58334H18.8141C19.7154 4.58334 20.166 4.58334 20.4445 4.923C20.7229 5.26265 20.6413 5.64298 20.478 6.40366C20.166 7.85663 19.4894 9.13313 18.5727 10.0833" stroke="#7454F8" stroke-width="1.5" stroke-linecap="round"/>
<path d="M11.4911 11C15.0231 11 17.8865 8.14285 17.8865 4.61837C17.8865 4.52595 17.8845 4.43399 17.8806 4.34253C17.8416 3.42657 17.822 2.96858 17.2033 2.40096C16.5846 1.83334 15.8991 1.83334 14.528 1.83334H8.45415C7.08308 1.83334 6.39754 1.83334 5.77883 2.40096C5.16013 2.96858 5.14061 3.42657 5.10157 4.34253C5.09767 4.43399 5.0957 4.52595 5.0957 4.61837C5.0957 8.14285 7.95901 11 11.4911 11Z" stroke="#7454F8" stroke-width="1.5" stroke-linecap="round"/>
</svg>
