<svg width="25" height="26" viewBox="0 0 25 26" fill="none" xmlns="http://www.w3.org/2000/svg">
<g clip-path="url(#clip0_91_684)">
<path d="M14.4095 15.4759C13.0918 15.4759 12.0137 14.9799 11.1751 13.988C10.3366 12.996 9.91727 11.7207 9.91727 10.1619C9.91727 8.60313 10.3366 7.32777 11.1751 6.33582C12.0137 5.34387 13.0918 4.8479 14.4095 4.8479C15.7273 4.8479 16.8054 5.34387 17.644 6.33582C18.4825 7.32777 18.9018 8.60313 18.9018 10.1619C18.9018 11.7207 18.4825 12.996 17.644 13.988C16.8054 14.9799 15.7273 15.4759 14.4095 15.4759ZM4.82605 26.8479V23.5178C4.82605 22.6203 5.01572 21.8527 5.39507 21.215C5.77441 20.5774 6.26357 20.0932 6.86254 19.7626C8.20023 19.054 9.48302 18.5226 10.7109 18.1684C11.9388 17.8141 13.1717 17.637 14.4095 17.637C15.6474 17.637 16.8753 17.82 18.0932 18.1861C19.3111 18.5521 20.5889 19.0776 21.9266 19.7626C22.5455 20.0932 23.0446 20.5774 23.424 21.215C23.8033 21.8527 23.993 22.6203 23.993 23.5178V26.8479H4.82605ZM6.62295 24.7223H22.1961V23.5178C22.1961 23.1399 22.1013 22.7797 21.9116 22.4373C21.7219 22.0948 21.4873 21.8409 21.2078 21.6756C19.93 20.9434 18.762 20.4416 17.7038 20.17C16.6457 19.8984 15.5476 19.7626 14.4095 19.7626C13.2715 19.7626 12.1634 19.8984 11.0853 20.17C10.0071 20.4416 8.83913 20.9434 7.5813 21.6756C7.30178 21.8409 7.07218 22.0948 6.89249 22.4373C6.7128 22.7797 6.62295 23.1399 6.62295 23.5178V24.7223ZM14.4095 13.3503C15.1882 13.3503 15.8321 13.0492 16.3412 12.4469C16.8503 11.8447 17.1049 11.083 17.1049 10.1619C17.1049 9.24082 16.8503 8.47914 16.3412 7.87689C15.8321 7.27463 15.1882 6.9735 14.4095 6.9735C13.6309 6.9735 12.987 7.27463 12.4779 7.87689C11.9687 8.47914 11.7142 9.24082 11.7142 10.1619C11.7142 11.083 11.9687 11.8447 12.4779 12.4469C12.987 13.0492 13.6309 13.3503 14.4095 13.3503Z" fill="#4F46E5"/>
</g>
<defs>
<clipPath id="clip0_91_684">
<rect width="23.7038" height="26" fill="white" transform="translate(0.875427)"/>
</clipPath>
</defs>
</svg>
